<svg width="240" height="240" viewBox="0 0 240 240" fill="none" xmlns="http://www.w3.org/2000/svg">
  <g fill="#C48CB6" fill-opacity="0.65">
    <g transform="translate(32 24) rotate(-8)">
      <circle cx="12" cy="8" r="8"/>
      <circle cx="32" cy="10" r="8"/>
      <circle cx="22" cy="26" r="8"/>
      <circle cx="44" cy="28" r="8"/>
      <path d="M24 30c10 2 18 10 18 18 0 10-8 15-18 13-10-2-18-10-18-18 0-9 8-15 18-13Z"/>
    </g>
    <g transform="translate(140 50) rotate(12)">
      <circle cx="12" cy="8" r="8"/>
      <circle cx="32" cy="10" r="8"/>
      <circle cx="22" cy="26" r="8"/>
      <circle cx="44" cy="28" r="8"/>
      <path d="M24 30c10 2 18 10 18 18 0 10-8 15-18 13-10-2-18-10-18-18 0-9 8-15 18-13Z"/>
    </g>
    <g transform="translate(70 140) rotate(-18)">
      <circle cx="12" cy="8" r="8"/>
      <circle cx="32" cy="10" r="8"/>
      <circle cx="22" cy="26" r="8"/>
      <circle cx="44" cy="28" r="8"/>
      <path d="M24 30c10 2 18 10 18 18 0 10-8 15-18 13-10-2-18-10-18-18 0-9 8-15 18-13Z"/>
    </g>
    <g transform="translate(176 154) rotate(6)">
      <circle cx="10" cy="8" r="7"/>
      <circle cx="28" cy="10" r="7"/>
      <circle cx="19" cy="24" r="7"/>
      <circle cx="36" cy="26" r="7"/>
      <path d="M20 28c9 2 16 9 16 16 0 9-7 14-16 12-9-2-16-9-16-16 0-8 7-14 16-12Z"/>
    </g>
  </g>
</svg>

