<svg width="23" height="24" viewBox="0 0 23 24" fill="none" xmlns="http://www.w3.org/2000/svg">
<path d="M9.84021 21C10.0084 21.304 10.2504 21.5565 10.5418 21.732C10.8331 21.9075 11.1636 21.9999 11.5 21.9999C11.8365 21.9999 12.167 21.9075 12.4583 21.732C12.7497 21.5565 12.9916 21.304 13.1599 21" stroke="#C48CB6" stroke-opacity="0.81" stroke-width="2" stroke-linecap="round" stroke-linejoin="round"/>
<path d="M3.12612 15.326C3.00092 15.4692 2.9183 15.6472 2.88831 15.8385C2.85832 16.0298 2.88224 16.226 2.95717 16.4034C3.0321 16.5807 3.1548 16.7316 3.31036 16.8375C3.46592 16.9434 3.64762 16.9999 3.83337 17H19.1667C19.3524 17.0001 19.5342 16.9438 19.6898 16.8381C19.8455 16.7324 19.9683 16.5817 20.0435 16.4045C20.1186 16.2273 20.1428 16.0311 20.113 15.8398C20.0832 15.6485 20.0009 15.4703 19.8759 15.327C18.6013 13.956 17.25 12.499 17.25 8C17.25 6.4087 16.6442 4.88258 15.5659 3.75736C14.4876 2.63214 13.025 2 11.5 2C9.97504 2 8.5125 2.63214 7.43417 3.75736C6.35583 4.88258 5.75003 6.4087 5.75003 8C5.75003 12.499 4.39782 13.956 3.12612 15.326Z" stroke="#C48CB6" stroke-opacity="0.81" stroke-width="2" stroke-linecap="round" stroke-linejoin="round"/>
</svg>
