<svg width="24" height="24" viewBox="0 0 24 24" fill="none" xmlns="http://www.w3.org/2000/svg">
<path d="M6.77226 6.28859H3.86987V5.41788C3.86987 5.07927 4.11174 4.8374 4.45035 4.8374H6.19178C6.53039 4.8374 6.77226 5.07927 6.77226 5.41788V6.28859Z" fill="#546E7A"/>
<path d="M19.3491 19.3492H3.86974C2.80553 19.3492 1.93481 18.4785 1.93481 17.4143V10.6421H21.284V17.4143C21.284 18.4785 20.4133 19.3492 19.3491 19.3492Z" fill="#5E35B1"/>
<path d="M6.1433 10.6421C5.94981 11.2709 5.80469 11.8998 5.80469 12.577C5.80469 15.7696 8.41683 18.3818 11.6095 18.3818C14.8021 18.3818 17.4142 15.7696 17.4142 12.577C17.4142 11.8998 17.2691 11.2709 17.0756 10.6421H6.1433Z" fill="#42257A"/>
<path d="M3.86974 5.80469H19.3491C20.4133 5.80469 21.284 6.6754 21.284 7.73961V10.642H1.93481V7.73961C1.93481 6.6754 2.80553 5.80469 3.86974 5.80469Z" fill="#78909C"/>
<path d="M16.3984 6.33695H6.8689L8.51358 3.86993C8.70707 3.57969 8.99731 3.43457 9.33592 3.43457H13.9797C14.3183 3.43457 14.6086 3.57969 14.8021 3.86993L16.3984 6.33695Z" fill="#78909C"/>
<path d="M17.0756 10.6423C16.3016 8.36877 14.1249 6.77246 11.6095 6.77246C9.09407 6.77246 6.91728 8.36877 6.14331 10.6423H17.0756Z" fill="#455A64"/>
<path d="M11.6094 16.9308C14.0138 16.9308 15.963 14.9816 15.963 12.5772C15.963 10.1728 14.0138 8.22363 11.6094 8.22363C9.20502 8.22363 7.25586 10.1728 7.25586 12.5772C7.25586 14.9816 9.20502 16.9308 11.6094 16.9308Z" fill="#B388FF"/>
<path d="M17.4143 7.25586H19.833V9.19078H17.4143V7.25586Z" fill="#DBE2E5"/>
</svg>
