<svg width="20" height="17" viewBox="0 0 20 17" fill="none" xmlns="http://www.w3.org/2000/svg">
<path d="M9.19434 0.5H13.0449C13.4859 0.5 13.7752 0.500923 13.9951 0.526367C14.2016 0.550297 14.2963 0.590792 14.3633 0.639648C14.4309 0.688982 14.5003 0.768256 14.5889 0.960938C14.6827 1.16505 14.7746 1.443 14.9141 1.86621L15.5254 3.72363L15.5264 3.72266C15.545 3.78384 15.5687 3.84378 15.5986 3.90039L15.6104 3.92285L15.624 3.94336C15.7163 4.08194 15.8502 4.17805 16.0049 4.22363L16.0146 4.22656L16.0234 4.22852C16.1221 4.25348 16.2215 4.25004 16.251 4.25C17.2664 4.25 17.6455 4.25721 17.9365 4.35938H17.9375C18.2196 4.45769 18.4766 4.61988 18.6885 4.83398C18.9001 5.04795 19.061 5.30863 19.1592 5.5957C19.2605 5.89398 19.2676 6.28192 19.2676 7.30762V11.25C19.2676 12.4424 19.2667 13.2868 19.1816 13.9268C19.0984 14.5529 18.9422 14.9083 18.6875 15.166C18.4336 15.4228 18.0855 15.5793 17.4697 15.6631C16.8387 15.749 16.0053 15.75 14.8262 15.75H4.94238C3.76302 15.75 2.92901 15.749 2.29785 15.6631C1.6821 15.5793 1.33395 15.4228 1.08008 15.166C0.825355 14.9083 0.669189 14.5529 0.585938 13.9268C0.500904 13.2868 0.5 12.4424 0.5 11.25V8.75C0.5 7.55756 0.500904 6.71319 0.585938 6.07324C0.669189 5.44712 0.825355 5.0917 1.08008 4.83398C1.33395 4.57725 1.6821 4.42075 2.29785 4.33691C2.92901 4.25101 3.76302 4.25 4.94238 4.25H5.91016C5.96294 4.25 6.04498 4.25055 6.11816 4.24219C6.20455 4.2323 6.32392 4.2062 6.44141 4.12305L6.44727 4.11914L6.45312 4.11426C6.5682 4.02766 6.62958 3.9217 6.66504 3.84375C6.69498 3.77783 6.71976 3.70069 6.73633 3.65039L7.32422 1.86621C7.46365 1.44299 7.55649 1.16528 7.65039 0.960938C7.73826 0.769736 7.80731 0.689819 7.875 0.639648C7.94205 0.591038 8.03708 0.55018 8.24414 0.526367C8.35411 0.513741 8.48115 0.507263 8.63574 0.503906L9.19434 0.5Z" fill="#DDAED2" fill-opacity="0.81" stroke="#C48CB6"/>
<path d="M12.9725 1.875H9.26611" stroke="#C48CB6" stroke-linecap="round" stroke-linejoin="round"/>
<path d="M11.1193 13.75C13.1663 13.75 14.8257 12.0711 14.8257 10C14.8257 7.92893 13.1663 6.25 11.1193 6.25C9.07226 6.25 7.41284 7.92893 7.41284 10C7.41284 12.0711 9.07226 13.75 11.1193 13.75Z" fill="#C48CB6"/>
<path d="M3.08869 1.25H0.617737C0.27657 1.25 0 1.52982 0 1.875C0 2.22018 0.27657 2.5 0.617737 2.5H3.08869C3.42985 2.5 3.70642 2.22018 3.70642 1.875C3.70642 1.52982 3.42985 1.25 3.08869 1.25Z" fill="#C48CB6" fill-opacity="0.81"/>
</svg>
