<svg width="27" height="27" viewBox="0 0 27 27" fill="none" xmlns="http://www.w3.org/2000/svg">
<path d="M13.5 0C8.7106 0 4.82715 3.88346 4.82715 8.6729C4.82715 12.8973 7.84912 16.417 11.8484 17.1887V19.9805H8.1288V23.2821H11.8484V27H15.15V23.2821H18.8696V19.9805H15.15V17.1887C19.1501 16.4176 22.1729 12.8979 22.1729 8.67287C22.1729 3.88345 18.2895 0 13.5 0ZM13.5 3.44876C16.3852 3.44876 18.7242 5.7877 18.7242 8.6729C18.7242 11.5581 16.3853 13.8971 13.5 13.8971C10.6148 13.8971 8.2759 11.5581 8.2759 8.6729C8.2759 5.7877 10.6148 3.44876 13.5 3.44876Z" fill="#FE8A7D"/>
</svg>
