<svg width="30" height="30" viewBox="0 0 30 30" fill="none" xmlns="http://www.w3.org/2000/svg">
<circle cx="15" cy="15" r="15" transform="matrix(-1 0 0 1 30 0)" fill="#FFEBCC"/>
<path fill-rule="evenodd" clip-rule="evenodd" d="M23.1649 9.15616C23.2869 9.03412 23.3555 8.86861 23.3555 8.69604C23.3555 8.52347 23.2869 8.35796 23.1649 8.23591L19.4828 4.55379C19.4223 4.49336 19.3506 4.44544 19.2716 4.41275C19.1926 4.38007 19.1079 4.36326 19.0225 4.36328C18.937 4.36331 18.8524 4.38017 18.7734 4.41291C18.6944 4.44564 18.6227 4.49361 18.5623 4.55407C18.5018 4.61453 18.4539 4.6863 18.4212 4.76529C18.3885 4.84427 18.3717 4.92891 18.3718 5.01439C18.3718 5.09987 18.3886 5.18451 18.4214 5.26347C18.4541 5.34244 18.5021 5.41418 18.5625 5.4746L19.0227 5.93416L16.722 8.23479L14.881 6.39429C14.7589 6.27218 14.5934 6.20355 14.4208 6.2035C14.3353 6.20347 14.2506 6.22028 14.1717 6.25297C14.0927 6.28566 14.0209 6.33358 13.9604 6.39401C13.9 6.45443 13.852 6.52617 13.8193 6.60514C13.7865 6.6841 13.7697 6.76874 13.7697 6.85421C13.7696 6.93969 13.7864 7.02434 13.8191 7.10332C13.8518 7.18231 13.8997 7.25408 13.9602 7.31454L14.881 8.23535L7.0566 16.0597C6.609 16.5077 6.30171 17.0764 6.17234 17.6963C6.04296 18.3163 6.09711 18.9604 6.32817 19.55L5.67623 20.202C5.33592 20.5423 5.22342 21.0249 5.33873 21.4592L3.83517 22.9627C3.77471 23.0232 3.72674 23.095 3.69402 23.174C3.6613 23.253 3.64446 23.3376 3.64446 23.4231C3.64446 23.5086 3.6613 23.5933 3.69402 23.6723C3.72674 23.7513 3.77471 23.8231 3.83517 23.8835C3.89563 23.944 3.96741 23.992 4.0464 24.0247C4.1254 24.0574 4.21007 24.0742 4.29557 24.0742C4.38108 24.0742 4.46575 24.0574 4.54474 24.0247C4.62374 23.992 4.69552 23.944 4.75598 23.8835L6.25954 22.38C6.48035 22.4394 6.71291 22.4394 6.93375 22.3802C7.15459 22.3209 7.35588 22.2044 7.51729 22.0425L8.16867 21.3911C8.75833 21.6221 9.40254 21.6761 10.0224 21.5467C10.6424 21.4172 11.2111 21.1098 11.659 20.6621L12.8627 19.4584L9.05629 15.6514L15.6769 9.03073L18.688 12.0424L17.3549 13.3749H18.9462L19.4834 12.8377L20.4036 13.758C20.4636 13.8201 20.5355 13.8697 20.6149 13.9038C20.6943 13.9379 20.7797 13.9559 20.8661 13.9566C20.9525 13.9574 21.0382 13.9409 21.1181 13.9082C21.1981 13.8754 21.2708 13.8271 21.3319 13.766C21.393 13.7049 21.4413 13.6322 21.474 13.5523C21.5068 13.4723 21.5232 13.3866 21.5225 13.3002C21.5217 13.2138 21.5038 13.1284 21.4697 13.049C21.4356 12.9696 21.386 12.8978 21.3239 12.8377L19.4828 10.9967L21.7834 8.69604L22.2447 9.15616C22.3667 9.27817 22.5322 9.34671 22.7048 9.34671C22.8774 9.34671 23.0429 9.27817 23.1649 9.15616ZM19.818 6.7301L20.988 7.9001L18.6874 10.2007L17.5174 9.03073L19.818 6.7301ZM10.8636 19.8662C10.5704 20.159 10.1981 20.36 9.79242 20.4447C9.38672 20.5293 8.96515 20.4938 8.57929 20.3426L7.37554 19.1389C7.22452 18.753 7.18921 18.3315 7.27392 17.9259C7.35863 17.5203 7.5597 17.1482 7.85254 16.8551L8.13604 16.571L11.1471 19.5827L10.8636 19.8662ZM7.0566 20.6615C7.0986 20.7039 7.14154 20.7444 7.18542 20.783L6.72192 21.2465C6.70552 21.263 6.68604 21.276 6.6646 21.2849C6.64316 21.2938 6.62018 21.2984 6.59696 21.2985C6.57374 21.2985 6.55075 21.2939 6.52929 21.2851C6.50783 21.2762 6.48832 21.2632 6.47189 21.2468C6.45545 21.2304 6.44241 21.2109 6.4335 21.1895C6.42459 21.1681 6.41999 21.1451 6.41996 21.1219C6.41994 21.0986 6.42448 21.0757 6.43334 21.0542C6.4422 21.0327 6.45521 21.0132 6.4716 20.9968L6.9351 20.5333C6.97448 20.5771 7.01499 20.6199 7.0566 20.6615Z" fill="#C48CB6"/>
<path d="M18 16.75C17.8508 16.75 17.7077 16.8093 17.6023 16.9148C17.4968 17.0202 17.4375 17.1633 17.4375 17.3125V18.4375H16.3125C16.1633 18.4375 16.0202 18.4968 15.9148 18.6023C15.8093 18.7077 15.75 18.8508 15.75 19C15.75 19.1492 15.8093 19.2923 15.9148 19.3977C16.0202 19.5032 16.1633 19.5625 16.3125 19.5625H17.4375V20.6875C17.4375 20.8367 17.4968 20.9798 17.6023 21.0852C17.7077 21.1907 17.8508 21.25 18 21.25C18.1492 21.25 18.2923 21.1907 18.3977 21.0852C18.5032 20.9798 18.5625 20.8367 18.5625 20.6875V19.5625H19.6875C19.8367 19.5625 19.9798 19.5032 20.0852 19.3977C20.1907 19.2923 20.25 19.1492 20.25 19C20.25 18.8508 20.1907 18.7077 20.0852 18.6023C19.9798 18.4968 19.8367 18.4375 19.6875 18.4375H18.5625V17.3125C18.5625 17.1633 18.5032 17.0202 18.3977 16.9148C18.2923 16.8093 18.1492 16.75 18 16.75Z" fill="#C48CB6"/>
<path fill-rule="evenodd" clip-rule="evenodd" d="M22.1287 22.2001C21.1616 23.4249 19.8035 24.2809 18.2812 24.625C16.759 24.281 15.401 23.4253 14.4337 22.2006C13.4603 20.9687 12.9329 19.4434 12.9375 17.8733V15.85C12.9375 15.4917 13.0781 15.1486 13.3284 14.8954C13.4519 14.7702 13.599 14.6708 13.7612 14.6029C13.9235 14.535 14.0976 14.5 14.2734 14.5H22.2885C22.6428 14.5 22.9826 14.6423 23.2335 14.8954C23.4852 15.1492 23.626 15.4925 23.625 15.85V17.8739C23.6292 19.4434 23.1018 20.9686 22.1287 22.2001ZM14.0625 17.8744V17.8767C14.0587 19.192 14.5004 20.4698 15.3157 21.502C16.0694 22.4565 17.1088 23.1448 18.2818 23.4662C19.4544 23.1446 20.4933 22.4563 21.2467 21.502C22.0621 20.4697 22.5039 19.1916 22.5 17.8761V15.85C22.5 15.7864 22.4747 15.7279 22.4342 15.6869C22.4154 15.6674 22.393 15.652 22.3681 15.6413C22.3433 15.6307 22.3166 15.6252 22.2896 15.625H14.2729C14.2211 15.625 14.1688 15.6458 14.1283 15.6869C14.1069 15.7083 14.0901 15.7337 14.0788 15.7617C14.0675 15.7898 14.0619 15.8198 14.0625 15.85V17.8744Z" fill="#C48CB6"/>
</svg>
