<svg width="42" height="42" viewBox="0 0 42 42" fill="none" xmlns="http://www.w3.org/2000/svg">
<path fill-rule="evenodd" clip-rule="evenodd" d="M36.0342 12.6875C36.2239 12.4977 36.3306 12.2402 36.3306 11.9718C36.3306 11.7033 36.2239 11.4459 36.0342 11.256L30.3064 5.52828C30.2124 5.43429 30.1007 5.35974 29.9778 5.30889C29.855 5.25804 29.7233 5.23189 29.5903 5.23193C29.4574 5.23197 29.3257 5.2582 29.2029 5.30913C29.0801 5.36005 28.9685 5.43467 28.8745 5.52872C28.7805 5.62277 28.7059 5.73441 28.6551 5.85727C28.6042 5.98013 28.5781 6.11181 28.5781 6.24478C28.5782 6.37774 28.6044 6.5094 28.6553 6.63223C28.7062 6.75506 28.7809 6.86666 28.8749 6.96065L29.5907 7.67553L26.0119 11.2543L23.148 8.39128C22.9582 8.20133 22.7007 8.09458 22.4322 8.0945C22.2992 8.09446 22.1675 8.12061 22.0446 8.17145C21.9218 8.2223 21.8101 8.29685 21.7161 8.39084C21.622 8.48484 21.5474 8.59643 21.4965 8.71926C21.4456 8.84209 21.4194 8.97375 21.4193 9.10672C21.4193 9.23969 21.4454 9.37136 21.4963 9.49422C21.5471 9.61708 21.6217 9.72873 21.7157 9.82278L23.148 11.2552L10.9768 23.4264C10.2805 24.1232 9.8025 25.008 9.60125 25.9723C9.4 26.9366 9.48424 27.9386 9.84365 28.8558L8.82953 29.8699C8.30015 30.3993 8.12515 31.15 8.30453 31.8255L5.96565 34.1644C5.8716 34.2585 5.797 34.3701 5.7461 34.493C5.6952 34.6159 5.669 34.7476 5.669 34.8806C5.669 35.0136 5.6952 35.1453 5.7461 35.2682C5.797 35.3911 5.8716 35.5027 5.96565 35.5968C6.0597 35.6908 6.17136 35.7654 6.29424 35.8163C6.41713 35.8672 6.54883 35.8934 6.68184 35.8934C6.81485 35.8934 6.94655 35.8672 7.06944 35.8163C7.19232 35.7654 7.30398 35.6908 7.39803 35.5968L9.7369 33.2579C10.0804 33.3503 10.4421 33.3504 10.7857 33.2582C11.1292 33.166 11.4423 32.9848 11.6934 32.7329L12.7067 31.7197C13.6239 32.079 14.626 32.1631 15.5903 31.9617C16.5546 31.7602 17.4393 31.2821 18.136 30.5857L20.0085 28.7132L14.0874 22.7912L24.3862 12.4924L29.07 17.1772L26.9963 19.25H29.4717L30.3073 18.4144L31.7388 19.8459C31.8322 19.9426 31.9439 20.0197 32.0674 20.0727C32.1909 20.1258 32.3237 20.1537 32.4582 20.1549C32.5926 20.156 32.7259 20.1304 32.8503 20.0795C32.9747 20.0286 33.0877 19.9535 33.1828 19.8584C33.2778 19.7634 33.353 19.6503 33.4039 19.5259C33.4548 19.4015 33.4804 19.2682 33.4793 19.1338C33.4781 18.9994 33.4502 18.8665 33.3971 18.743C33.3441 18.6195 33.267 18.5078 33.1703 18.4144L30.3064 15.5505L33.8852 11.9718L34.6027 12.6875C34.7925 12.8773 35.05 12.9839 35.3184 12.9839C35.5869 12.9839 35.8443 12.8773 36.0342 12.6875ZM30.8279 8.91365L32.6479 10.7337L29.0692 14.3124L27.2492 12.4924L30.8279 8.91365ZM16.8988 29.3475C16.4426 29.8031 15.8636 30.1158 15.2325 30.2474C14.6014 30.379 13.9456 30.3239 13.3454 30.0887L11.4729 28.2162C11.238 27.616 11.183 26.9603 11.3148 26.3294C11.4466 25.6985 11.7594 25.1196 12.2149 24.6637L12.6559 24.2218L17.3398 28.9065L16.8988 29.3475ZM10.9768 30.5848C11.0421 30.6507 11.1089 30.7137 11.1772 30.7738L10.4562 31.4948C10.4306 31.5203 10.4003 31.5406 10.367 31.5545C10.3336 31.5684 10.2979 31.5755 10.2618 31.5756C10.2257 31.5756 10.1899 31.5685 10.1565 31.5547C10.1231 31.541 10.0928 31.5207 10.0672 31.4952C10.0416 31.4697 10.0214 31.4394 10.0075 31.4061C9.99364 31.3727 9.98649 31.337 9.98645 31.3008C9.98641 31.2647 9.99348 31.229 10.0073 31.1956C10.021 31.1622 10.0413 31.1318 10.0668 31.1063L10.7878 30.3853C10.849 30.4534 10.912 30.5199 10.9768 30.5848Z" fill="#C48CB6"/>
<path d="M28 24.5C27.7679 24.5 27.5454 24.5922 27.3813 24.7563C27.2172 24.9204 27.125 25.1429 27.125 25.375V27.125H25.375C25.1429 27.125 24.9204 27.2172 24.7563 27.3813C24.5922 27.5454 24.5 27.7679 24.5 28C24.5 28.2321 24.5922 28.4546 24.7563 28.6187C24.9204 28.7828 25.1429 28.875 25.375 28.875H27.125V30.625C27.125 30.8571 27.2172 31.0796 27.3813 31.2437C27.5454 31.4078 27.7679 31.5 28 31.5C28.2321 31.5 28.4546 31.4078 28.6187 31.2437C28.7828 31.0796 28.875 30.8571 28.875 30.625V28.875H30.625C30.8571 28.875 31.0796 28.7828 31.2437 28.6187C31.4078 28.4546 31.5 28.2321 31.5 28C31.5 27.7679 31.4078 27.5454 31.2437 27.3813C31.0796 27.2172 30.8571 27.125 30.625 27.125H28.875V25.375C28.875 25.1429 28.7828 24.9204 28.6187 24.7563C28.4546 24.5922 28.2321 24.5 28 24.5Z" fill="#C48CB6"/>
<path fill-rule="evenodd" clip-rule="evenodd" d="M34.4225 32.9779C32.918 34.8832 30.8054 36.2147 28.4375 36.75C26.0696 36.215 23.957 34.8838 22.4525 32.9787C20.9382 31.0625 20.1178 28.6897 20.125 26.2474V23.1C20.125 22.5426 20.3437 22.0089 20.7331 21.6151C20.9252 21.4203 21.154 21.2657 21.4064 21.1601C21.6587 21.0545 21.9295 21.0001 22.2031 21H34.671C35.2222 21 35.7507 21.2214 36.141 21.6151C36.5325 22.0099 36.7516 22.5439 36.75 23.1V26.2482C36.7565 28.6897 35.9361 31.0623 34.4225 32.9779ZM21.875 26.2491V26.2526C21.8691 28.2987 22.5562 30.2864 23.8245 31.892C24.9969 33.3768 26.6137 34.4475 28.4383 34.9475C30.2623 34.4472 31.8785 33.3765 33.0505 31.892C34.3189 30.2862 35.006 28.2981 35 26.2518V23.1C35 23.0011 34.9606 22.9101 34.8976 22.8463C34.8684 22.816 34.8335 22.7919 34.7949 22.7754C34.7563 22.7589 34.7147 22.7502 34.6727 22.75H22.2022C22.1217 22.75 22.0403 22.7824 21.9773 22.8463C21.9441 22.8795 21.9179 22.9191 21.9003 22.9627C21.8827 23.0063 21.8741 23.053 21.875 23.1V26.2491Z" fill="#C48CB6"/>
</svg>
