<svg width="25" height="24" viewBox="0 0 25 24" fill="none" xmlns="http://www.w3.org/2000/svg">
<path d="M2.08337 9.50004C2.0834 8.38724 2.43503 7.30062 3.09185 6.3837C3.74866 5.46678 4.67975 4.7627 5.76213 4.36444C6.84452 3.96618 8.02729 3.89248 9.15422 4.15308C10.2812 4.41368 11.2992 4.99632 12.074 5.82404C12.1286 5.88005 12.1945 5.92471 12.2678 5.95524C12.3411 5.98577 12.4202 6.00152 12.5 6.00152C12.5799 6.00152 12.659 5.98577 12.7323 5.95524C12.8055 5.92471 12.8715 5.88005 12.9261 5.82404C13.6984 4.99094 14.7167 4.40341 15.8455 4.13964C16.9743 3.87588 18.1599 3.94839 19.2447 4.34752C20.3295 4.74666 21.2619 5.45349 21.9179 6.37394C22.5738 7.29439 22.9222 8.3848 22.9167 9.50004C22.9167 11.79 21.3542 13.5 19.7917 15L14.0709 20.313C13.8768 20.527 13.6375 20.699 13.3688 20.8173C13.1002 20.9357 12.8084 20.9979 12.5128 20.9997C12.2173 21.0015 11.9247 20.9429 11.6545 20.8278C11.3843 20.7127 11.1428 20.5437 10.9459 20.332L5.20837 15C3.64587 13.5 2.08337 11.8 2.08337 9.50004Z" stroke="#C570D0" stroke-opacity="0.8" stroke-width="2" stroke-linecap="round" stroke-linejoin="round"/>
</svg>
