<svg width="91" height="86" viewBox="0 0 91 86" fill="none" xmlns="http://www.w3.org/2000/svg">
<rect width="91" height="86" rx="20" fill="#FFEBCC"/>
<path d="M10 35.099C10.0001 31.0443 11.1985 27.0851 13.4369 23.7441C15.6753 20.4032 18.8484 17.8377 22.5372 16.3866C26.2259 14.9355 30.2568 14.667 34.0974 15.6165C37.9379 16.566 41.4075 18.689 44.0479 21.7049C44.2339 21.909 44.4587 22.0717 44.7085 22.183C44.9583 22.2942 45.2276 22.3516 45.4999 22.3516C45.7721 22.3516 46.0415 22.2942 46.2913 22.183C46.541 22.0717 46.7659 21.909 46.9518 21.7049C49.5839 18.6694 53.0543 16.5286 56.9012 15.5675C60.748 14.6064 64.7887 14.8706 68.4856 16.325C72.1825 17.7793 75.3602 20.3547 77.5957 23.7086C79.8313 27.0624 81.0186 31.0355 80.9998 35.099C80.9998 43.443 75.6748 49.6737 70.3498 55.1392L50.8533 74.4979C50.1918 75.2777 49.3762 75.9041 48.4607 76.3355C47.5453 76.7668 46.5508 76.9933 45.5435 76.9999C44.5362 77.0064 43.539 76.7929 42.6183 76.3734C41.6976 75.954 40.8744 75.3383 40.2033 74.5672L20.65 55.1392C15.325 49.6737 10 43.4794 10 35.099Z" stroke="#C48CB6" stroke-width="4" stroke-linecap="round" stroke-linejoin="round"/>
</svg>
