<svg width="24" height="24" viewBox="0 0 24 24" fill="none" xmlns="http://www.w3.org/2000/svg">
<path d="M22.3454 1.69092V9.42717H19.2666V1.69092H22.3454Z" fill="#7098EE"/>
<path d="M22.3647 4.76869H14.6284V1.68994H22.3647V4.76869Z" fill="#7098EE"/>
<path d="M20.6979 5.51525L14.7887 11.4245L12.6118 9.24763L18.5209 3.33838L20.6979 5.51525Z" fill="#7098EE"/>
<path d="M14.5294 9.50658C11.5369 6.51408 6.68438 6.51408 3.69188 9.50658C0.699385 12.4991 0.699385 17.3516 3.69188 20.3441C6.68438 23.3366 11.5369 23.3366 14.5294 20.3441C17.5219 17.3516 17.5219 12.4991 14.5294 9.50658ZM5.92688 18.1091C4.16813 16.3503 4.16813 13.5003 5.92688 11.7416C7.68563 9.98283 10.5356 9.98283 12.2944 11.7416C14.0531 13.5003 14.0531 16.3503 12.2944 18.1091C10.5375 19.8678 7.68563 19.8678 5.92688 18.1091Z" fill="#7098EE"/>
</svg>
