<svg width="40" height="40" viewBox="0 0 40 40" fill="none" xmlns="http://www.w3.org/2000/svg">
<path d="M33.125 12.8125C32.3215 12.8125 31.5361 13.0508 30.868 13.4972C30.1999 13.9436 29.6792 14.578 29.3717 15.3204C29.0643 16.0627 28.9838 16.8795 29.1406 17.6676C29.2973 18.4556 29.6842 19.1795 30.2524 19.7476C30.8205 20.3158 31.5444 20.7027 32.3324 20.8594C33.1205 21.0162 33.9373 20.9357 34.6797 20.6283C35.422 20.3208 36.0565 19.8001 36.5028 19.132C36.9492 18.4639 37.1875 17.6785 37.1875 16.875C37.1875 15.7976 36.7595 14.7642 35.9976 14.0024C35.2358 13.2405 34.2024 12.8125 33.125 12.8125ZM33.125 19.0625C32.6924 19.0625 32.2694 18.9342 31.9097 18.6938C31.55 18.4535 31.2696 18.1118 31.104 17.7121C30.9385 17.3124 30.8951 16.8726 30.9795 16.4482C31.0639 16.0239 31.2723 15.6341 31.5782 15.3282C31.8841 15.0223 32.2739 14.8139 32.6982 14.7295C33.1226 14.6451 33.5624 14.6884 33.9621 14.854C34.3618 15.0196 34.7035 15.3 34.9438 15.6597C35.1842 16.0194 35.3125 16.4424 35.3125 16.875C35.3125 17.4552 35.082 18.0116 34.6718 18.4218C34.2616 18.832 33.7052 19.0625 33.125 19.0625ZM10.9375 16.875C10.9375 16.0715 10.6992 15.2861 10.2528 14.618C9.80645 13.9499 9.17198 13.4292 8.42965 13.1217C7.68733 12.8143 6.8705 12.7338 6.08245 12.8906C5.2944 13.0473 4.57053 13.4342 4.00238 14.0024C3.43423 14.5705 3.04731 15.2944 2.89056 16.0824C2.73381 16.8705 2.81426 17.6873 3.12174 18.4297C3.42922 19.172 3.94992 19.8065 4.618 20.2528C5.28607 20.6992 6.07152 20.9375 6.875 20.9375C7.95244 20.9375 8.98576 20.5095 9.74762 19.7476C10.5095 18.9858 10.9375 17.9524 10.9375 16.875ZM6.875 19.0625C6.44236 19.0625 6.01942 18.9342 5.65969 18.6938C5.29996 18.4535 5.01958 18.1118 4.85402 17.7121C4.68845 17.3124 4.64513 16.8726 4.72953 16.4482C4.81394 16.0239 5.02228 15.6341 5.32821 15.3282C5.63413 15.0223 6.02391 14.8139 6.44824 14.7295C6.87257 14.6451 7.31241 14.6884 7.71212 14.854C8.11183 15.0196 8.45348 15.3 8.69384 15.6597C8.93421 16.0194 9.0625 16.4424 9.0625 16.875C9.0625 17.4552 8.83203 18.0116 8.4218 18.4218C8.01156 18.832 7.45516 19.0625 6.875 19.0625ZM14.375 13.4375C15.1785 13.4375 15.9639 13.1992 16.632 12.7528C17.3001 12.3065 17.8208 11.672 18.1283 10.9297C18.4357 10.1873 18.5162 9.37049 18.3594 8.58245C18.2027 7.7944 17.8158 7.07053 17.2476 6.50238C16.6795 5.93423 15.9556 5.54731 15.1676 5.39056C14.3795 5.23381 13.5627 5.31426 12.8204 5.62174C12.078 5.92922 11.4436 6.44992 10.9972 7.118C10.5508 7.78607 10.3125 8.57151 10.3125 9.375C10.3125 10.4524 10.7405 11.4858 11.5024 12.2476C12.2642 13.0095 13.2976 13.4375 14.375 13.4375ZM14.375 7.1875C14.8076 7.1875 15.2306 7.3158 15.5903 7.55616C15.95 7.79653 16.2304 8.13817 16.396 8.53788C16.5616 8.9376 16.6049 9.37743 16.5205 9.80176C16.4361 10.2261 16.2277 10.6159 15.9218 10.9218C15.6159 11.2277 15.2261 11.4361 14.8018 11.5205C14.3774 11.6049 13.9376 11.5616 13.5379 11.396C13.1382 11.2304 12.7965 10.95 12.5562 10.5903C12.3158 10.2306 12.1875 9.80765 12.1875 9.375C12.1875 8.79484 12.418 8.23844 12.8282 7.82821C13.2384 7.41797 13.7948 7.1875 14.375 7.1875ZM25.625 13.4375C26.4285 13.4375 27.2139 13.1992 27.882 12.7528C28.5501 12.3065 29.0708 11.672 29.3783 10.9297C29.6857 10.1873 29.7662 9.37049 29.6094 8.58245C29.4527 7.7944 29.0658 7.07053 28.4976 6.50238C27.9295 5.93423 27.2056 5.54731 26.4176 5.39056C25.6295 5.23381 24.8127 5.31426 24.0704 5.62174C23.328 5.92922 22.6936 6.44992 22.2472 7.118C21.8008 7.78607 21.5625 8.57151 21.5625 9.375C21.5625 10.4524 21.9905 11.4858 22.7524 12.2476C23.5142 13.0095 24.5476 13.4375 25.625 13.4375ZM25.625 7.1875C26.0576 7.1875 26.4806 7.3158 26.8403 7.55616C27.2 7.79653 27.4804 8.13817 27.646 8.53788C27.8116 8.9376 27.8549 9.37743 27.7705 9.80176C27.6861 10.2261 27.4777 10.6159 27.1718 10.9218C26.8659 11.2277 26.4761 11.4361 26.0518 11.5205C25.6274 11.6049 25.1876 11.5616 24.7879 11.396C24.3882 11.2304 24.0465 10.95 23.8062 10.5903C23.5658 10.2306 23.4375 9.80765 23.4375 9.375C23.4375 8.79484 23.668 8.23844 24.0782 7.82821C24.4884 7.41797 25.0448 7.1875 25.625 7.1875ZM29.0859 23.5328C28.4154 23.1626 27.8244 22.6639 27.3467 22.0653C26.8689 21.4666 26.5138 20.7797 26.3016 20.0438C25.9049 18.6794 25.0761 17.4806 23.9397 16.6276C22.8034 15.7745 21.4209 15.3134 20 15.3134C18.5791 15.3134 17.1966 15.7745 16.0603 16.6276C14.9239 17.4806 14.0951 18.6794 13.6984 20.0438C13.2715 21.5274 12.2728 22.7808 10.9219 23.5281C9.75988 24.157 8.84082 25.1554 8.31019 26.3654C7.77956 27.5754 7.66769 28.9279 7.99227 30.2086C8.31685 31.4894 9.05935 32.6253 10.1022 33.4365C11.1451 34.2478 12.4288 34.688 13.75 34.6875C14.5425 34.6884 15.327 34.529 16.0563 34.2188C18.5788 33.179 21.4102 33.179 23.9328 34.2188C24.6656 34.53 25.4539 34.6894 26.25 34.6875C27.5703 34.6878 28.8531 34.248 29.8955 33.4377C30.9379 32.6273 31.6805 31.4926 32.0058 30.213C32.3311 28.9334 32.2207 27.5818 31.6919 26.372C31.1631 25.1622 30.2461 24.1631 29.0859 23.5328ZM26.25 32.8125C25.7017 32.8134 25.159 32.7028 24.6547 32.4875C21.6701 31.2552 18.319 31.2552 15.3344 32.4875C14.3739 32.8877 13.2964 32.9042 12.3241 32.5334C11.3519 32.1626 10.559 31.4328 10.1089 30.4947C9.65886 29.5565 9.58596 28.4813 9.90525 27.491C10.2246 26.5006 10.9117 25.6705 11.825 25.1719C13.6117 24.1842 14.933 22.5273 15.4984 20.5656C15.7815 19.5907 16.3735 18.734 17.1853 18.1244C17.9971 17.5148 18.9848 17.1853 20 17.1853C21.0152 17.1853 22.0029 17.5148 22.8147 18.1244C23.6265 18.734 24.2185 19.5907 24.5016 20.5656C24.7822 21.5384 25.2519 22.4462 25.8839 23.2371C26.5158 24.0281 27.2976 24.6866 28.1844 25.175C28.9805 25.6047 29.6104 26.2878 29.9743 27.1161C30.3381 27.9444 30.4151 28.8704 30.193 29.7474C29.9708 30.6244 29.4623 31.4022 28.7481 31.9574C28.0338 32.5126 27.1547 32.8136 26.25 32.8125Z" fill="#FFEBCC"/>
</svg>
