<svg width="40" height="40" viewBox="0 0 40 40" fill="none" xmlns="http://www.w3.org/2000/svg">
<path d="M13.3333 15C13.3333 16.8409 11.841 18.3333 10 18.3333C8.15905 18.3333 6.66667 16.841 6.66667 15C6.66667 13.159 8.15905 11.6667 10 11.6667C11.841 11.6667 13.3333 13.159 13.3333 15Z" fill="#FFEBCC"/>
<path d="M20 11.6667C20 13.5076 18.5076 15 16.6667 15C14.8257 15 13.3333 13.5076 13.3333 11.6667C13.3333 9.82572 14.8257 8.33333 16.6667 8.33333C18.5076 8.33333 20 9.82572 20 11.6667Z" fill="#FFEBCC"/>
<path d="M26.6667 11.6667C26.6667 13.5076 25.1743 15 23.3333 15C21.4924 15 20 13.5076 20 11.6667C20 9.82572 21.4924 8.33333 23.3333 8.33333C25.1743 8.33333 26.6667 9.82572 26.6667 11.6667Z" fill="#FFEBCC"/>
<path d="M33.3333 15C33.3333 16.8409 31.841 18.3333 30 18.3333C28.159 18.3333 26.6667 16.841 26.6667 15C26.6667 13.159 28.159 11.6667 30 11.6667C31.841 11.6667 33.3333 13.159 33.3333 15Z" fill="#FFEBCC"/>
<path d="M25 28.3333C25 30.7277 24.2098 32.6667 21.6667 32.6667H18.3333C15.7902 32.6667 15 30.7277 15 28.3333C15 25.1577 16.7909 20 20 20C23.2091 20 25 25.1577 25 28.3333Z" fill="#FFEBCC"/>
</svg>

