<svg width="71" height="71" viewBox="0 0 71 71" fill="none" xmlns="http://www.w3.org/2000/svg">
<rect x="0.5" y="0.5" width="70" height="70" rx="19.5" fill="#FFEBCC"/>
<rect x="0.5" y="0.5" width="70" height="70" rx="19.5" stroke="#FFEBCC"/>
<path d="M35.4375 18C36.4155 18 37.3534 18.3885 38.045 19.08C38.7365 19.7716 39.125 20.7095 39.125 21.6875V32.75H50.1875C51.1655 32.75 52.1034 33.1385 52.795 33.83C53.4865 34.5216 53.875 35.4595 53.875 36.4375C53.875 37.4155 53.4865 38.3534 52.795 39.045C52.1034 39.7365 51.1655 40.125 50.1875 40.125H39.125V51.1875C39.125 52.1655 38.7365 53.1034 38.045 53.795C37.3534 54.4865 36.4155 54.875 35.4375 54.875C34.4595 54.875 33.5216 54.4865 32.83 53.795C32.1385 53.1034 31.75 52.1655 31.75 51.1875V40.125H20.6875C19.7095 40.125 18.7716 39.7365 18.08 39.045C17.3885 38.3534 17 37.4155 17 36.4375C17 35.4595 17.3885 34.5216 18.08 33.83C18.7716 33.1385 19.7095 32.75 20.6875 32.75H31.75V21.6875C31.75 20.7095 32.1385 19.7716 32.83 19.08C33.5216 18.3885 34.4595 18 35.4375 18Z" fill="#C48CB6"/>
</svg>
