<svg width="52" height="56" viewBox="0 0 52 56" fill="none" xmlns="http://www.w3.org/2000/svg">
<rect x="1.5" y="1.5" width="49" height="53" rx="8.5" stroke="#C48CB6" stroke-width="3"/>
<path d="M36 12.4V24.1L32 20.2L28 24.1V12.4H20V43.6H40V12.4H36ZM8 18.25V14.35H12V12.4C12 11.3657 12.4214 10.3737 13.1716 9.64228C13.9217 8.91089 14.9391 8.5 16 8.5H40C42.1 8.5 44 10.3525 44 12.4V43.6C44 45.6475 42.1 47.5 40 47.5H16C13.9 47.5 12 45.6475 12 43.6V41.65H8V37.75H12V29.95H8V26.05H12V18.25H8ZM12 14.35V18.25H16V14.35H12ZM12 41.65H16V37.75H12V41.65ZM12 29.95H16V26.05H12V29.95Z" fill="#C48CB6"/>
</svg>
