<svg width="30" height="30" viewBox="0 0 30 30" fill="none" xmlns="http://www.w3.org/2000/svg">
<circle cx="15" cy="15" r="15" transform="matrix(-1 0 0 1 30 0)" fill="#FFEBCC"/>
<path d="M7.70078 6.60156L6.60156 7.65039V22.3555L7.62188 23.3984H22.3555L23.3984 22.3555V7.6457L22.3555 6.60156H7.70078ZM14.6484 7.81523V9.375H15.3516V7.81523C16.3398 7.82695 17.3242 7.88672 18.2656 7.99609L17.7852 9.91406L18.4648 10.0859L18.9648 8.08789C20.0273 8.24297 21.0156 8.46367 21.875 8.75L20 13.125C18.9805 12.8711 17.543 12.7187 16.0352 12.6719C16.1953 12.8867 16.2891 13.1523 16.2891 13.4375C16.2891 14.1445 15.707 14.7266 15 14.7266C14.293 14.7266 13.7109 14.1445 13.7109 13.4375C13.7109 13.1523 13.8047 12.8867 13.9648 12.6719C12.4531 12.7187 11.0195 12.8711 10 13.125L8.125 8.75C8.98438 8.46367 9.97266 8.24297 11.0352 8.08789L11.5352 10.0859L12.2148 9.91406L11.7344 7.99609C12.6758 7.88672 13.6602 7.82695 14.6484 7.81523ZM13.4492 8.61172L12.8008 8.88828L14.2891 12.3633C14.4883 12.2344 14.7187 12.1563 14.9687 12.1484L13.4492 8.61172ZM15 12.8516C14.6719 12.8516 14.4141 13.1094 14.4141 13.4375C14.4141 13.7656 14.6719 14.0234 15 14.0234C15.3281 14.0234 15.5859 13.7656 15.5859 13.4375C15.5859 13.1094 15.3281 12.8516 15 12.8516ZM10 19.0234H20V19.7266H10V19.0234ZM10 20.8984H20V21.6016H10V20.8984Z" fill="#C48CB6"/>
</svg>
