<svg width="46" height="46" viewBox="0 0 46 46" fill="none" xmlns="http://www.w3.org/2000/svg">
<path d="M6.2118 3.68359L3.68359 6.0959V39.9176L6.03031 42.3164H39.9176L42.3164 39.9176V6.08512L39.9176 3.68359H6.2118ZM22.1914 6.47504V10.0625H23.8086V6.47504C26.0816 6.50199 28.3457 6.63945 30.5109 6.89102L29.4059 11.3023L30.9691 11.6977L32.1191 7.10215C34.5629 7.45883 36.8359 7.96645 38.8125 8.625L34.5 18.6875C32.1551 18.1035 28.8488 17.7531 25.3809 17.6453C25.7492 18.1395 25.9648 18.7504 25.9648 19.4062C25.9648 21.0324 24.6262 22.3711 23 22.3711C21.3738 22.3711 20.0352 21.0324 20.0352 19.4062C20.0352 18.7504 20.2508 18.1395 20.6191 17.6453C17.1422 17.7531 13.8449 18.1035 11.5 18.6875L7.1875 8.625C9.16406 7.96645 11.4371 7.45883 13.8809 7.10215L15.0309 11.6977L16.5941 11.3023L15.4891 6.89102C17.6543 6.63945 19.9184 6.50199 22.1914 6.47504ZM19.4332 8.30695L17.9418 8.94305L21.3648 16.9355C21.823 16.6391 22.3531 16.4594 22.9281 16.4414L19.4332 8.30695ZM23 18.0586C22.2453 18.0586 21.6523 18.6516 21.6523 19.4062C21.6523 20.1609 22.2453 20.7539 23 20.7539C23.7547 20.7539 24.3477 20.1609 24.3477 19.4062C24.3477 18.6516 23.7547 18.0586 23 18.0586ZM11.5 32.2539H34.5V33.8711H11.5V32.2539ZM11.5 36.5664H34.5V38.1836H11.5V36.5664Z" fill="#C48CB6"/>
</svg>
